<svg width="541" height="97" viewBox="0 0 541 97" fill="none" xmlns="http://www.w3.org/2000/svg">
<g clip-path="url(#clip0_1592_80)">
<path d="M222.7 1.40009C222.767 1.40009 222.867 1.46676 223 1.60009C225 2.80009 226.5 5.00009 227 7.30009C227.3 9.10009 227.2 11.1001 226.5 12.7001C226.5 12.7668 226.467 12.8668 226.4 13.0001C225.4 15.3001 223.5 17.0001 221.2 17.9001C219 18.7001 216.5 18.6001 214.4 17.6001C212.1 16.5001 210.4 14.7001 209.5 12.2001C209.5 12.1334 209.5 12.0334 209.5 11.9001C208.8 9.90009 209 7.40009 209.9 5.40009C211.1 3.00009 213 1.30009 215.6 0.400089C215.7 0.400089 215.9 0.400089 216 0.300089C216 0.300089 216.1 0.300089 216.2 0.300089C218.5 -0.299911 220.8 0.300089 222.8 1.40009H222.7Z" fill="#000C29"/>
<mask id="mask0_1592_80" style="mask-type:luminance" maskUnits="userSpaceOnUse" x="0" y="0" width="107" height="97">
<path d="M106.7 0H0V97H106.7V0Z" fill="white"/>
</mask>
<g mask="url(#mask0_1592_80)">
<path d="M106.7 9.7V87.3C106.7 92.6 102.3 97 96.9999 97H4.8999C15.7999 91.5 29.2999 90.1 29.1999 77.6V9.7C29.0999 4.4 33.4999 0 38.7999 0H96.9999C102.3 0 106.7 4.4 106.7 9.7Z" fill="url(#paint0_linear_1592_80)"/>
<path d="M14.0999 46.8999C14.0999 25.1999 9.89994 9.8999 20.5999 9.8999H73.2999C80.7999 9.8999 83.7999 14.1999 83.7999 19.3999C83.7999 24.5999 80.7999 28.7999 73.2999 28.7999H20.5999C13.0999 28.7999 14.0999 51.9999 14.0999 46.7999V46.8999Z" fill="#85A9FF"/>
<path d="M13.8001 77.3999C13.8001 55.6999 9.60014 40.3999 20.3001 40.3999H47.3001C54.8001 40.3999 57.6001 44.6999 57.6001 49.8999C57.6001 55.0999 54.9001 59.2999 47.3001 59.2999H20.3001C12.8001 59.2999 13.8001 82.4999 13.8001 77.2999V77.3999Z" fill="#D6E2FF"/>
</g>
<path d="M132 0H199V18.7H153.7V39.5H191.5V58.2H153.6V97.1H132.1V0H132Z" fill="#000C29"/>
<path d="M209 24H227V97H209V24Z" fill="#000C29"/>
<path d="M535.4 75.7001C535.533 75.7001 535.633 75.7668 535.7 75.9001C538.2 77.5001 540.1 80.1001 540.8 83.0001C541.2 85.2001 541 87.8001 540.1 89.8001C540.1 89.9334 540.066 90.0334 540 90.1001C538.7 93.0001 536.4 95.1001 533.4 96.3001C530.6 97.3001 527.5 97.2001 524.8 96.0001C521.9 94.6001 519.8 92.3001 518.6 89.3001C518.6 89.1668 518.566 89.0668 518.5 89.0001C517.6 86.4001 517.9 83.3001 519 80.9001C520.5 77.9001 523 75.8001 526.2 74.6001C526.4 74.6001 526.6 74.5001 526.8 74.4001C526.8 74.4001 527 74.4001 527.1 74.4001C530 73.7001 532.9 74.4001 535.4 75.8001V75.7001Z" fill="#004FFF"/>
<path d="M272.8 24C273.2 24 273.6 24 274 24C276.2 24 278.4 24.1 280.6 24.6C280.7 24.6 280.9 24.6 281 24.6C281.3 24.6 281.6 24.7 281.8 24.8C282.1 24.8 282.4 24.9 282.7 25C287.3 26 291.9 28.5 295.6 31.4C295.7 31.4 295.8 31.6 296 31.7C298.2 33.4 300.3 35.4 302 37.7C302.133 37.8333 302.233 37.9667 302.3 38.1C306.1 42.9 308.6 48.7 309.6 54.8C309.6 54.9333 309.6 55.0667 309.6 55.2C310 57.4 309.9 59.7 309.9 61.9V63.3C309.9 64.1 309.9 64.9 309.9 65.7C309.9 66.9 309.9 68.1 309.9 69.2C309.9 71.1 309.9 73 309.9 74.9C309.9 76.8 309.9 78.6 309.9 80.5V80.9C309.9 81.8 309.9 82.7 309.9 83.6C309.9 88 309.9 92.5 309.9 96.9H291.2C291.2 94.2 291.2 91.4 291.2 88.6C291.2 86.9 291.2 85.1 291.2 83.4C291.2 82.5 291.2 81.6 291.2 80.7C291.2 80.6 291.2 80.5 291.2 80.4C291.2 78.6 291.2 76.7 291.2 74.9C291.2 73 291.2 71.1 291.2 69.2C291.2 68 291.2 66.9 291.2 65.7C291.2 64.9 291.2 64.1 291.2 63.3C291.2 62.8 291.2 62.4 291.2 61.9C291.2 57.2 290.1 52.8 287 49.1C287 49 286.8 48.9 286.7 48.7C283.6 45.1 279.1 43 274.4 42.7C271.7 42.5 268.8 43 266.3 44.2C266.3 44.2 266.1 44.2 266.1 44.3C261.9 46.2 258.6 49.6 256.9 54C256.7 54.4 256.6 54.9 256.4 55.4C256.4 55.5 256.4 55.7 256.3 55.8C255.9 57.2 255.7 58.6 255.7 60.1C255.7 60.2333 255.7 60.4 255.7 60.6C255.7 61 255.7 61.5 255.7 61.9C255.7 62.3 255.7 62.8 255.7 63.3C255.7 64.1 255.7 64.9 255.7 65.8C255.7 67 255.7 68.2 255.7 69.3C255.7 71.2 255.7 73.1 255.7 75.1C255.7 77 255.7 78.8 255.7 80.7C255.7 80.8 255.7 80.9 255.7 81.1C255.7 82 255.7 82.9 255.7 83.8C255.7 88.2 255.7 92.7 255.7 97.1H237C237 90.7667 237 86.2667 237 83.6C237 82.7 237 81.8 237 80.9V80.6C237 78.8 237 76.9 237 75.1C237 73.2 237 71.3 237 69.4C237 68.2 237 67.1 237 65.9C237 65.1 237 64.3 237 63.5C237 63 237 62.6 237 62.1C237 54.5 238.5 47.3 242.7 40.8C242.7 40.8 242.8 40.6 242.9 40.5C243.7 39.2 244.6 38.1 245.6 36.9C245.667 36.8333 245.767 36.7333 245.9 36.6C246.1 36.3 246.3 36.1 246.6 35.8C246.667 35.6667 246.767 35.5667 246.9 35.5C248.1 34.1 249.5 32.8 251 31.7C251.1 31.7 251.2 31.5 251.3 31.4C255.7 28 260.8 25.7 266.2 24.5C266.3 24.5 266.4 24.5 266.6 24.5C268.7 24.1 270.7 24 272.8 24Z" fill="#000C29"/>
<path d="M394.5 52.7001C394.5 52.6001 394.5 52.4001 394.5 52.3001C394.2 50.5001 393.7 48.8001 393.1 47.1001C393.1 46.9001 392.9 46.7001 392.8 46.4001C391.4 42.7001 389.5 39.3001 387.1 36.3001C387 36.1001 386.8 35.9001 386.7 35.8001C385.3 33.9001 383.5 32.3001 381.7 30.8001C381.633 30.8001 381.567 30.7334 381.5 30.6001C377.9 27.7001 373.9 25.4001 369.5 24.0001C369.2 24.0001 368.9 23.8001 368.6 23.7001C367 23.1001 365.4 22.8001 363.7 22.5001C363.567 22.5001 363.433 22.5001 363.3 22.5001C361.5 22.2001 359.7 22.1001 357.8 22.1001C357.7 22.1001 357.6 22.1001 357.5 22.1001C356.7 22.1001 355.8 22.1001 355 22.1001C354.8 22.1001 354.567 22.1001 354.3 22.1001C349.7 22.4001 345.1 23.7001 341 25.8001C340.9 25.8001 340.8 25.9001 340.7 26.0001C337.1 27.8001 333.4 30.3001 330.7 33.3001C330.4 33.6001 330.2 33.9001 329.9 34.2001C327.5 36.7001 325.5 39.6001 324 42.7001C324 42.8001 323.9 42.9001 323.8 43.0001C322.5 45.5001 321.6 48.3001 321 51.0001C321 51.2001 321 51.3001 320.9 51.5001C320.3 53.9001 320.1 56.4001 320.1 58.9001C320.1 59.0001 320.1 59.1001 320.1 59.2001C320.1 65.8001 321.7 72.3001 325.1 78.0001C325.167 78.1334 325.267 78.3001 325.4 78.5001C326.1 79.6001 326.8 80.7001 327.6 81.7001C327.8 81.9001 328 82.2001 328.1 82.4001C329.7 84.6001 331.8 86.7001 334 88.4001C334.067 88.4001 334.133 88.4668 334.2 88.6001C338.9 92.3001 344.3 94.9001 350.2 96.1001C350.3 96.1001 350.4 96.1001 350.5 96.1001C353 96.6001 355.6 96.8001 358.2 96.8001C358.4 96.8001 358.567 96.8001 358.7 96.8001C363.2 96.7001 367.5 95.7001 371.7 94.1001C371.7 94.1001 371.9 94.1001 372 94.0001C375.7 92.5001 379.1 90.4001 382.1 87.9001C382.2 87.8001 382.3 87.7001 382.5 87.6001C387 83.8001 391 78.4001 392.9 72.8001C392.9 72.7001 392.9 72.6001 393 72.5001C393 72.3001 393.1 72.1001 393.2 71.9001C390.5 71.9001 387.9 71.9001 385.2 71.9001C383.9 71.9001 382.6 71.9001 381.3 71.9001C380.2 71.9001 379 71.9001 377.9 71.9001C377.3 71.9001 376.7 71.9001 376.1 71.9001C375.5 71.9001 374.9 71.9001 374.4 71.9001C374.2 71.9001 374 71.9001 373.8 71.9001C373.5 71.9001 373.2 71.9001 372.9 71.9001C372.833 71.9001 372.733 71.9001 372.6 71.9001C372.3 71.9001 372 71.9001 371.8 71.9001C371.8 71.9001 371.8 71.9001 371.7 72.0001C367.9 75.6001 363.5 77.8001 358.2 77.8001C357.9 77.8001 357.5 77.8001 357.2 77.8001C357 77.8001 356.7 77.8001 356.5 77.8001C356.4 77.8001 356.3 77.8001 356.2 77.8001C355.7 77.8001 355.2 77.8001 354.7 77.8001C354.633 77.8001 354.533 77.8001 354.4 77.8001C349.9 76.7001 346.3 74.5001 343.3 70.9001C343.3 70.9001 343.2 70.8001 343.1 70.7001C342.233 69.4334 341.433 68.1001 340.7 66.7001C358.9 66.7001 376.9 66.6668 394.7 66.6001C394.833 66.4001 394.933 66.0668 395 65.6001C395 65.6001 395 65.4001 395 65.3001C395.3 63.5001 395.4 61.7001 395.4 59.9001C395.4 59.5001 395.4 59.1001 395.4 58.7001C395.4 56.7001 395.3 54.7001 394.9 52.7001H394.5ZM340.1 52.7001C340.167 52.1001 340.3 51.6668 340.5 51.4001C340.5 51.4001 340.5 51.2001 340.6 51.1001C340.6 51.1001 340.7 50.9001 340.8 50.8001C340.8 50.7334 340.867 50.6334 341 50.5001C341.8 49.0001 342.8 47.7001 344 46.4001C344 46.4001 344.2 46.2001 344.3 46.1001C350.6 39.5001 361.4 39.0001 368.6 44.4001C370 45.5001 371.3 46.7001 372.3 48.1001C372.3 48.1668 372.367 48.2334 372.5 48.3001C373.967 50.3668 374.7 51.8001 374.7 52.6001H340.2L340.1 52.7001Z" fill="#000C29"/>
<path d="M405 0H424V97H405V0Z" fill="#000C29"/>
<path d="M500.1 37.1001C500 37.0001 499.9 36.8001 499.8 36.7001C498.2 34.6001 496.3 32.8001 494.2 31.2001C494.1 31.1001 493.9 31.0001 493.8 30.9001C492.2 29.6001 490.5 28.5001 488.6 27.5001C488.3 27.3001 488 27.2001 487.7 27.0001C486.2 26.2001 484.6 25.6001 483 25.0001C482.9 25.0001 482.8 25.0001 482.6 24.9001C471.3 20.9001 457.7 23.3001 448.3 30.8001C448.1 30.9001 447.9 31.1001 447.8 31.2001C446.7 32.0001 445.8 32.9001 444.8 33.9001C444.733 33.9668 444.667 34.0334 444.6 34.1001C440 38.8001 436.8 44.5001 435.2 50.9001C435.2 51.1001 435.2 51.2001 435.1 51.4001C433.5 57.5001 433.7 64.6001 435.7 70.6001C435.7 70.8001 435.8 71.0001 435.9 71.2001C435.9 71.4001 436.1 71.7001 436.1 71.9001C436.1 72.0001 436.1 72.1001 436.2 72.3001C437.3 75.8001 439.3 79.4001 441.7 82.3001C441.9 82.5001 442 82.7001 442.2 82.9001C443.7 84.9001 445.5 86.7001 447.5 88.3001C447.5 88.3001 447.7 88.4001 447.8 88.5001C454.5 94.0001 462.5 96.7001 471.1 96.8001C471.2 96.8001 471.4 96.8001 471.5 96.8001C473.5 96.8001 475.4 96.8001 477.4 96.4001C477.6 96.4001 477.7 96.4001 477.9 96.4001C479.3 96.1001 480.8 95.8001 482.2 95.3001C482.2 95.3001 482.4 95.3001 482.5 95.3001C483.5 95.0001 484.5 94.7001 485.4 94.2001C485.6 94.1001 485.9 94.0001 486.1 93.9001C487 93.5001 487.8 93.2001 488.6 92.7001C488.9 92.5001 489.2 92.4001 489.5 92.2001C489.5 93.6001 489.5 95.0001 489.6 96.3001H508.2C508.2 91.8001 508.2 87.3001 508.2 82.9001C508.2 82.0001 508.2 81.1001 508.2 80.2001V79.8001C508.2 77.9001 508.2 76.0001 508.2 74.2001C508.2 72.3001 508.2 70.3001 508.2 68.4001C508.2 67.2001 508.2 66.0001 508.2 64.8001C508.2 64.0001 508.2 63.2001 508.2 62.3001V60.9001C508.2 60.5001 508.2 60.0001 508.2 59.6001V59.1001C508.2 51.2001 505.3 43.2001 500.3 37.1001H500.1ZM488.8 65.1001C488.8 65.1001 488.8 65.3001 488.8 65.4001C488.8 65.7001 488.6 65.9001 488.5 66.2001C488.5 66.3001 488.5 66.5001 488.4 66.6001C487 70.9001 483.5 74.5001 479.5 76.6001C478.4 77.2001 477.2 77.6001 476.1 77.9001C475.8 77.9001 475.6 78.1001 475.3 78.2001C471.1 79.5001 466.2 78.4001 462.4 76.5001C460 75.2001 457.9 73.3001 456.3 71.1001C456.233 70.9668 456.133 70.8668 456 70.8001C455 69.5001 454.2 68.0001 453.7 66.4001C453.7 66.2001 453.6 66.1001 453.5 65.9001C453.5 65.7001 453.4 65.5001 453.3 65.4001C453.3 65.2001 453.2 65.1001 453.1 64.9001C452.7 63.4001 452.6 61.8001 452.6 60.3001C452.6 60.3001 452.6 60.1001 452.6 60.0001C452.6 58.6001 452.6 57.3001 453 55.9001C453 55.8001 453 55.7001 453 55.6001C454.1 51.7001 456.4 48.2001 459.7 45.7001C459.7 45.7001 459.9 45.6001 459.9 45.5001C460.5 45.0001 461.2 44.6001 461.9 44.2001C462 44.2001 462.1 44.1001 462.2 44.0001C463.1 43.5001 463.9 43.2001 464.8 42.9001C464.867 42.9001 464.933 42.9001 465 42.9001C468.7 41.6001 472.9 41.7001 476.6 42.9001C476.7 42.9001 476.9 42.9001 477 43.0001C479.2 43.8001 481.1 44.9001 482.8 46.4001C482.9 46.5001 483.1 46.6001 483.2 46.7001C485 48.2001 486.3 50.1001 487.3 52.2001C487.3 52.3001 487.4 52.4001 487.5 52.6001C487.9 53.4001 488.1 54.2001 488.4 55.0001C488.4 55.1001 488.4 55.2001 488.5 55.3001C489 56.9001 489.1 58.4001 489.1 60.1001C489.1 60.3001 489.1 60.4001 489.1 60.6001C489.1 62.2001 489 63.7001 488.5 65.2001L488.8 65.1001Z" fill="#000C29"/>
</g>
<defs>
<linearGradient id="paint0_linear_1592_80" x1="55.7999" y1="0" x2="55.7999" y2="97" gradientUnits="userSpaceOnUse">
<stop stop-color="#000C29"/>
<stop offset="1" stop-color="#004FFF"/>
</linearGradient>
<clipPath id="clip0_1592_80">
<rect width="541" height="97" fill="white"/>
</clipPath>
</defs>
</svg>
